<?xml version="1.0" encoding="UTF-8" standalone="no"?>
<!-- Created with Inkscape (http://www.inkscape.org/) -->

<svg
   version="1.1"
   id="svg2"
   xml:space="preserve"
   width="3779.5332"
   height="3779.5332"
   viewBox="0 0 3779.5332 3779.5332"
   sodipodi:docname="logo.ai"
   xmlns:inkscape="http://www.inkscape.org/namespaces/inkscape"
   xmlns:sodipodi="http://sodipodi.sourceforge.net/DTD/sodipodi-0.dtd"
   xmlns="http://www.w3.org/2000/svg"
   xmlns:svg="http://www.w3.org/2000/svg"><defs
     id="defs6"><linearGradient
       x1="0"
       y1="0"
       x2="1"
       y2="0"
       gradientUnits="userSpaceOnUse"
       gradientTransform="matrix(143.75046,0,0,-143.75046,1275.0389,2092.2119)"
       spreadMethod="pad"
       id="linearGradient28"><stop
         style="stop-opacity:1;stop-color:#ee1c76"
         offset="0"
         id="stop24" /><stop
         style="stop-opacity:1;stop-color:#f57c50"
         offset="1"
         id="stop26" /></linearGradient><linearGradient
       x1="0"
       y1="0"
       x2="1"
       y2="0"
       gradientUnits="userSpaceOnUse"
       gradientTransform="matrix(499.67764,0,0,-499.67764,1323.8346,2039.2709)"
       spreadMethod="pad"
       id="linearGradient48"><stop
         style="stop-opacity:1;stop-color:#ee1c76"
         offset="0"
         id="stop44" /><stop
         style="stop-opacity:1;stop-color:#f57c50"
         offset="1"
         id="stop46" /></linearGradient><linearGradient
       x1="0"
       y1="0"
       x2="1"
       y2="0"
       gradientUnits="userSpaceOnUse"
       gradientTransform="matrix(986.40424,0,0,-986.40424,1066.8444,1927.1642)"
       spreadMethod="pad"
       id="linearGradient68"><stop
         style="stop-opacity:1;stop-color:#ee1c76"
         offset="0"
         id="stop64" /><stop
         style="stop-opacity:1;stop-color:#f57c50"
         offset="1"
         id="stop66" /></linearGradient><linearGradient
       x1="0"
       y1="0"
       x2="1"
       y2="0"
       gradientUnits="userSpaceOnUse"
       gradientTransform="matrix(689.06079,0,0,-689.06079,1274.632,2001.0737)"
       spreadMethod="pad"
       id="linearGradient88"><stop
         style="stop-opacity:1;stop-color:#ee1c76"
         offset="0"
         id="stop84" /><stop
         style="stop-opacity:1;stop-color:#f57c50"
         offset="1"
         id="stop86" /></linearGradient><linearGradient
       x1="0"
       y1="0"
       x2="1"
       y2="0"
       gradientUnits="userSpaceOnUse"
       gradientTransform="matrix(59.937378,0,0,-59.937378,827.06592,1802.436)"
       spreadMethod="pad"
       id="linearGradient108"><stop
         style="stop-opacity:1;stop-color:#ee1c76"
         offset="0"
         id="stop104" /><stop
         style="stop-opacity:1;stop-color:#f57c50"
         offset="1"
         id="stop106" /></linearGradient><linearGradient
       x1="0"
       y1="0"
       x2="1"
       y2="0"
       gradientUnits="userSpaceOnUse"
       gradientTransform="matrix(1268.2577,0,0,-1268.2577,864.59253,1743.5555)"
       spreadMethod="pad"
       id="linearGradient128"><stop
         style="stop-opacity:1;stop-color:#ee1c76"
         offset="0"
         id="stop124" /><stop
         style="stop-opacity:1;stop-color:#f57c50"
         offset="1"
         id="stop126" /></linearGradient><linearGradient
       x1="0"
       y1="0"
       x2="1"
       y2="0"
       gradientUnits="userSpaceOnUse"
       gradientTransform="matrix(1425.1678,0,0,-1425.1678,718.47955,1436.3832)"
       spreadMethod="pad"
       id="linearGradient148"><stop
         style="stop-opacity:1;stop-color:#ee1c76"
         offset="0"
         id="stop144" /><stop
         style="stop-opacity:1;stop-color:#f57c50"
         offset="1"
         id="stop146" /></linearGradient><linearGradient
       x1="0"
       y1="0"
       x2="1"
       y2="0"
       gradientUnits="userSpaceOnUse"
       gradientTransform="matrix(1313.186,0,0,-1313.186,832.81335,1649.0632)"
       spreadMethod="pad"
       id="linearGradient168"><stop
         style="stop-opacity:1;stop-color:#ee1c76"
         offset="0"
         id="stop164" /><stop
         style="stop-opacity:1;stop-color:#f57c50"
         offset="1"
         id="stop166" /></linearGradient><linearGradient
       x1="0"
       y1="0"
       x2="1"
       y2="0"
       gradientUnits="userSpaceOnUse"
       gradientTransform="matrix(53.465363,0,0,-53.465363,703.3089,1221.0619)"
       spreadMethod="pad"
       id="linearGradient188"><stop
         style="stop-opacity:1;stop-color:#ee1c76"
         offset="0"
         id="stop184" /><stop
         style="stop-opacity:1;stop-color:#f57c50"
         offset="1"
         id="stop186" /></linearGradient><linearGradient
       x1="0"
       y1="0"
       x2="1"
       y2="0"
       gradientUnits="userSpaceOnUse"
       gradientTransform="matrix(1361.9907,0,0,-1361.9907,688.98016,1195.6628)"
       spreadMethod="pad"
       id="linearGradient208"><stop
         style="stop-opacity:1;stop-color:#ee1c76"
         offset="0"
         id="stop204" /><stop
         style="stop-opacity:1;stop-color:#f57c50"
         offset="1"
         id="stop206" /></linearGradient><linearGradient
       x1="0"
       y1="0"
       x2="1"
       y2="0"
       gradientUnits="userSpaceOnUse"
       gradientTransform="matrix(1123.7488,0,0,-1123.7488,760.12769,924.78253)"
       spreadMethod="pad"
       id="linearGradient228"><stop
         style="stop-opacity:1;stop-color:#ee1c76"
         offset="0"
         id="stop224" /><stop
         style="stop-opacity:1;stop-color:#f57c50"
         offset="1"
         id="stop226" /></linearGradient><linearGradient
       x1="0"
       y1="0"
       x2="1"
       y2="0"
       gradientUnits="userSpaceOnUse"
       gradientTransform="matrix(1254.6937,0,0,-1254.6937,693.5802,1091.0063)"
       spreadMethod="pad"
       id="linearGradient248"><stop
         style="stop-opacity:1;stop-color:#ee1c76"
         offset="0"
         id="stop244" /><stop
         style="stop-opacity:1;stop-color:#f57c50"
         offset="1"
         id="stop246" /></linearGradient><linearGradient
       x1="0"
       y1="0"
       x2="1"
       y2="0"
       gradientUnits="userSpaceOnUse"
       gradientTransform="matrix(681.00677,0,0,-681.00677,921.77576,786.79724)"
       spreadMethod="pad"
       id="linearGradient268"><stop
         style="stop-opacity:1;stop-color:#ee1c76"
         offset="0"
         id="stop264" /><stop
         style="stop-opacity:1;stop-color:#f57c50"
         offset="1"
         id="stop266" /></linearGradient><linearGradient
       x1="0"
       y1="0"
       x2="1"
       y2="0"
       gradientUnits="userSpaceOnUse"
       gradientTransform="matrix(399.17361,0,0,-399.17361,1067.4011,733.64874)"
       spreadMethod="pad"
       id="linearGradient288"><stop
         style="stop-opacity:1;stop-color:#ee1c76"
         offset="0"
         id="stop284" /><stop
         style="stop-opacity:1;stop-color:#f57c50"
         offset="1"
         id="stop286" /></linearGradient></defs><sodipodi:namedview
     id="namedview4"
     pagecolor="#ffffff"
     bordercolor="#666666"
     borderopacity="1.0"
     inkscape:pageshadow="2"
     inkscape:pageopacity="0.0"
     inkscape:pagecheckerboard="0" /><g
     id="g8"
     inkscape:groupmode="layer"
     inkscape:label="logo"
     transform="matrix(1.3333333,0,0,-1.3333333,0,3779.5333)"><path
       d="M 0,0 H 2834.65 V 2834.65 H 0 Z"
       style="fill:#ffffff;fill-opacity:1;fill-rule:nonzero;stroke:none"
       id="path10" /><g
       id="g12"><g
         id="g14"><g
           id="g20"><g
             id="g22"><path
               d="m 1282.251,2086 c -5.81,-7.224 -6.368,-12.522 -7.212,-20.542 v 0 c 12.085,42.89 82.988,56.793 143.75,51.562 v 0 c -11.271,1.342 -21.952,1.945 -32.021,1.945 v 0 c -56.21,0 -93.14,-18.818 -104.517,-32.965"
               style="fill:url(#linearGradient28);stroke:none"
               id="path30" /></g></g></g></g><g
       id="g32"><g
         id="g34"><g
           id="g40"><g
             id="g42"><path
               d="m 1329.891,2093.969 c -48.793,-56.396 206.929,-163.144 418.827,-124.37 v 0 c 34.122,6.244 106.425,24.566 59.327,62.02 v 0 c -10.95,6.916 -21.702,13.498 -31.234,19.349 v 0 c -6.249,3.427 -13.299,7.257 -20.585,11.114 v 0 c -2.55,1.306 -5.11,2.592 -7.682,3.859 v 0 c 2.664,-2.05 6.82,-4.776 7.878,-7.967 v 0 c 11.492,-34.641 -224.061,-32.886 -320.622,13.093 v 0 c -10.099,4.809 -58.378,29.623 -17.011,45.953 v 0 c -3.398,0.143 -6.686,0.211 -9.881,0.211 v 0 c -46.181,0 -71.248,-14.281 -79.017,-23.262 m 433.817,-35.795 c -0.02,0.011 -0.039,0.021 -0.058,0.031 v 0 c 0.019,-0.01 0.038,-0.02 0.058,-0.031 m 0.443,-0.236 c -0.012,0.01 -0.024,0.013 -0.036,0.02 v 0 c 0.012,-0.01 0.024,-0.013 0.036,-0.02 m 0.872,-0.466 c -0.044,0.024 -0.088,0.047 -0.132,0.071 v 0 c 0.044,-0.024 0.088,-0.048 0.132,-0.071 m 0.535,-0.287 c -0.077,0.041 -0.153,0.082 -0.23,0.123 v 0 c 0.077,-0.041 0.153,-0.082 0.23,-0.123 m 0.642,-0.345 c -0.123,0.066 -0.245,0.131 -0.367,0.197 v 0 c 0.122,-0.065 0.245,-0.131 0.367,-0.197 m 0.645,-0.349 c -0.148,0.081 -0.295,0.16 -0.444,0.24 v 0 c 0.148,-0.08 0.296,-0.16 0.444,-0.24 m 0.575,-0.311 c -0.136,0.074 -0.27,0.147 -0.406,0.22 v 0 c 0.136,-0.073 0.271,-0.146 0.406,-0.22 m 1.229,-0.668 c -0.367,0.2 -0.733,0.399 -1.101,0.599 v 0 c 0.367,-0.199 0.734,-0.399 1.101,-0.599 m 0.584,-0.32 c -0.167,0.092 -0.334,0.183 -0.502,0.275 v 0 c 0.168,-0.092 0.335,-0.183 0.502,-0.275 m 1.183,-0.648 c -0.375,0.206 -0.749,0.411 -1.124,0.616 v 0 c 0.375,-0.205 0.75,-0.41 1.124,-0.616 m 0.583,-0.322 c -0.094,0.052 -0.188,0.104 -0.282,0.156 v 0 c 0,0 -0.01,0 -0.012,0.01 v 0 c -0.07,0.039 -0.139,0.077 -0.209,0.115 v 0 c 0.168,-0.092 0.335,-0.184 0.503,-0.277 m 0.626,-0.346 c -0.189,0.105 -0.379,0.21 -0.568,0.314 v 0 c 0.189,-0.104 0.379,-0.209 0.568,-0.314 m 0.525,-0.291 c -0.03,0.017 -0.061,0.034 -0.092,0.051 v 0 c -0.044,0.025 -0.089,0.05 -0.133,0.074 v 0 c -0.099,0.055 -0.197,0.109 -0.296,0.164 v 0 c 0.174,-0.096 0.347,-0.193 0.521,-0.289 m 0.537,-0.299 c -0.042,0.024 -0.084,0.047 -0.127,0.071 v 0 c -0.056,0.032 -0.113,0.063 -0.17,0.095 v 0 c -0.032,0.017 -0.064,0.036 -0.097,0.054 v 0 c 0.132,-0.074 0.263,-0.147 0.394,-0.22 m 0.657,-0.366 c -0.165,0.092 -0.329,0.184 -0.494,0.276 v 0 c 0.165,-0.092 0.329,-0.184 0.494,-0.276 m 0.484,-0.27 c -0.01,0 -0.016,0.01 -0.024,0.013 v 0 c -0.047,0.026 -0.095,0.053 -0.143,0.08 v 0 c -0.028,0.016 -0.057,0.032 -0.085,0.048 v 0 c 0.084,-0.048 0.168,-0.094 0.252,-0.141 m 0.443,-0.248 c -0.01,0 -0.015,0.01 -0.022,0.012 v 0 c -0.026,0.014 -0.052,0.029 -0.078,0.044 v 0 c -0.01,0 -0.011,0.01 -0.017,0.01 v 0 c 0.039,-0.022 0.078,-0.044 0.117,-0.065 m 2.54,-1.434 c 0,0 0,0 0,0"
               style="fill:url(#linearGradient48);stroke:none"
               id="path50" /></g></g></g></g><g
       id="g52"><g
         id="g54"><g
           id="g60"><g
             id="g62"><path
               d="m 1292.786,2134.975 c 6.455,1.116 13.041,2.213 18.592,3.129 v 0 c -4.833,-0.776 -11.183,-1.795 -18.592,-3.129 m -1.798,-0.312 c -0.67,-0.128 -1.346,-0.257 -2.026,-0.388 v 0 c 1.304,0.243 2.578,0.475 3.824,0.7 v 0 c -0.601,-0.104 -1.201,-0.208 -1.798,-0.312 m -42.997,-8.92 c -1.243,-0.277 -2.548,-0.581 -3.894,-0.904 v 0 c -205.798,-53.393 -235.438,-152.652 -72.931,-248.214 v 0 c 308.095,-181.174 920.863,-200.419 880.15,-100.08 v 0 c -0.021,0.052 -0.042,0.102 -0.063,0.154 v 0 c -8.238,14.347 -17.916,30.274 -26.113,42.603 v 0 c -8.149,12.258 -19.166,27.879 -28.718,40.3 v 0 c -1.159,1.485 -2.298,2.946 -3.411,4.377 v 0 l -22.966,27.679 c -2.153,2.502 -4.309,4.987 -6.443,7.428 v 0 c -0.638,-1.618 -1.457,-3.69 -2.077,-5.264 v 0 c -8.083,-3.092 -32.676,-12.503 -146.81,-8.812 v 0 c -152.855,-6.464 -310.468,5.767 -432.427,33.557 v 0 c -207.434,47.199 -292.421,119.763 -206.672,176.465 v 0 c 28.09,18.574 67.212,29.623 97.876,36.161 v 0 c -8.939,-1.833 -17.868,-3.747 -25.501,-5.45"
               style="fill:url(#linearGradient68);stroke:none"
               id="path70" /></g></g></g></g><g
       id="g72"><g
         id="g74"><g
           id="g80"><g
             id="g82"><path
               d="m 1275.039,2065.458 c -10.208,-64.424 171.658,-162.976 539.676,-180.448 v 0 c 114.134,-3.691 138.727,5.72 146.81,8.812 v 0 c 0.62,1.573 1.439,3.647 2.077,5.265 v 0 c -2.03,2.322 -4.042,4.605 -6.011,6.822 v 0 c -14.267,15.197 -32.073,32.796 -45.833,46.46 v 0 c -2.345,2.121 -4.828,4.33 -7.41,6.597 v 0 c 0.122,-0.267 0.258,-0.565 0.367,-0.803 v 0 c -41.278,-24.917 -486.468,-0.663 -571.456,95.871 v 0 c -31.136,35.368 8.831,64.8 85.53,62.986 v 0 c -5.835,0.57 -13.362,0.963 -21.928,0.962 v 0 c -41.614,-10e-4 -107.624,-9.275 -121.822,-52.524"
               style="fill:url(#linearGradient88);stroke:none"
               id="path90" /></g></g></g></g><g
       id="g92"><g
         id="g94"><g
           id="g100"><g
             id="g102"><path
               d="m 862.6,1888.459 c -34.926,-45.402 -44.167,-91.007 -27.454,-135.78 v 0 c 9.244,-24.765 22.092,-39.62 43.378,-64.23 v 0 c -77.155,95.058 -43.499,165.227 2.98,221.45 v 0 c -6.435,-7.112 -12.807,-14.361 -18.904,-21.44"
               style="fill:url(#linearGradient108);stroke:none"
               id="path110" /></g></g></g></g><g
       id="g112"><g
         id="g114"><g
           id="g120"><g
             id="g122"><path
               d="m 1003.71,2016.765 c -4.114,-2.835 -7.654,-5.284 -10.867,-7.542 v 0 c -6.62,-4.735 -13.557,-9.923 -19.933,-14.875 v 0 c -9.68,-7.733 -21.907,-18.163 -44.739,-37.677 v 0 c -3.445,-3.086 -6.77,-6.113 -9.879,-9.001 v 0 c -101.621,-98.835 -32.012,-178.244 -9.089,-204.398 v 0 C 1149.7,1468.874 2124.432,1388.523 2132.851,1555.904 v 0 c -4.084,22.04 -11.976,50.048 -18.356,73.095 v 0 c -0.698,2.386 -1.402,4.769 -2.109,7.125 v 0 c 0.201,-1.053 0.424,-2.187 0.282,-3.102 v 0 c -15.627,-100.932 -906.854,-30.735 -1140.305,235.166 v 0 c -61.045,78.532 6.475,129.875 32.875,149.597 v 0 c -0.514,-0.342 -1.024,-0.683 -1.528,-1.02"
               style="fill:url(#linearGradient128);stroke:none"
               id="path130" /></g></g></g></g><g
       id="g132"><g
         id="g134"><g
           id="g140"><g
             id="g142"><path
               d="m 754.403,1719.167 c -5.032,-12.188 -11.246,-26.804 -16.804,-40.673 v 0 c -2.746,-7.204 -5.399,-14.241 -7.828,-20.432 v 0 l -5.046,-14.924 c -6.386,-27.267 -7.903,-33.745 -4.422,-63.924 v 0 c 104.106,-383.689 1329.701,-495.471 1389.205,-387.982 v 0 c 0.421,0.76 0.833,1.532 1.239,2.316 v 0 c 3.798,12.265 7.527,25.321 10.759,35.992 v 0 c 3.86,12.751 7.519,28.485 10.462,43.613 v 0 c 0.742,4.412 1.455,8.679 2.16,12.724 v 0 c 1.909,13.509 4.351,29.8 6.403,45.453 v 0 c 0.99,8.842 1.895,17.932 2.673,27.026 v 0 c -8.855,-4.175 -26.723,-11.548 -156.576,-7.908 v 0 c -306.9,-15.554 -558.678,20.152 -715.85,52.845 v 0 c -369.69,77.817 -562.522,195.98 -516.208,316.236 v 0 c -0.056,-0.121 -0.112,-0.241 -0.167,-0.362"
               style="fill:url(#linearGradient148);stroke:none"
               id="path150" /></g></g></g></g><g
       id="g152"><g
         id="g154"><g
           id="g160"><g
             id="g162"><path
               d="m 918.729,1948.075 -25.167,-25.107 c -6.141,-6.515 -12.344,-13.328 -18.426,-20.173 v 0 c -81.863,-100.244 -24.705,-176.743 3.388,-214.346 v 0 c 129.84,-150.929 522.828,-313.976 1108.104,-338.001 v 0 c 129.853,-3.64 147.721,3.733 156.576,7.908 v 0 c 0.32,3.739 0.619,7.478 0.892,11.198 v 0 l 1.903,46.574 -0.743,31.6 c -0.081,1.963 -0.168,3.927 -0.261,5.884 v 0 c -15.555,-5.139 -64.973,-6.276 -85.538,-6.526 v 0 c -619.107,-7.53 -1400.581,232.363 -1140.539,501.165 v 0 c -0.064,-0.059 -0.126,-0.117 -0.189,-0.176"
               style="fill:url(#linearGradient168);stroke:none"
               id="path170" /></g></g></g></g><g
       id="g172"><g
         id="g174"><g
           id="g180"><g
             id="g182"><path
               d="m 705.883,1261.256 5.294,-18.645 c 10.806,-30.003 22.433,-44.456 45.597,-73.251 v 0 c -35.429,45.653 -40.993,59.505 -52.267,99.174 v 0 c 0.458,-2.467 0.918,-4.898 1.376,-7.278"
               style="fill:url(#linearGradient188);stroke:none"
               id="path190" /></g></g></g></g><g
       id="g192"><g
         id="g194"><g
           id="g200"><g
             id="g202"><path
               d="m 688.98,1418.532 c 0.323,-21.849 2.202,-49.992 3.87,-73.441 v 0 c 0.615,-5.408 1.3,-10.932 2.041,-16.505 v 0 c 39.04,-173.865 307.435,-280.031 527.187,-338.672 v 0 c 607.863,-162.204 779.526,-7.006 781.843,-4.69 v 0 c 7.214,9.808 14.574,20.311 20.418,29.101 v 0 c 1.776,2.671 3.626,5.513 5.52,8.473 v 0 c 7.147,11.542 13.99,23.181 20.185,33.219 v 0 c 0.24,0.415 0.481,0.832 0.718,1.243 v 0 c -91.118,-109.653 -1090.143,10.899 -1332.71,328.941 v 0 c -23.922,39.834 -26.134,50.803 -26.785,89.07 v 0 z"
               style="fill:url(#linearGradient208);stroke:none"
               id="path210" /></g></g></g></g><g
       id="g212"><g
         id="g214"><g
           id="g220"><g
             id="g222"><path
               d="m 797.058,1035.321 8.148,-12.569 c 4.902,-7.357 10.239,-15.092 15.426,-22.542 v 0 C 974.268,804.689 1588.391,704.136 1739.175,763.741 v 0 c 16.145,8.421 36.313,19.691 53.728,29.754 v 0 c 8.358,5.054 16.805,10.276 24.494,15.193 v 0 c 21.326,14.447 45.266,32.72 64.304,47.507 v 0 c 0.645,0.538 1.29,1.079 1.937,1.623 v 0 c -7.046,-1.781 -168.169,-35.607 -498.815,3.107 v 0 c -121.865,15.176 -527.069,77.479 -624.695,241.983 v 0 c 10.292,-20.687 25.554,-47.476 36.93,-67.587"
               style="fill:url(#linearGradient228);stroke:none"
               id="path230" /></g></g></g></g><g
       id="g232"><g
         id="g234"><g
           id="g240"><g
             id="g242"><path
               d="m 704.609,1267.983 c 11.918,-43.275 20.12,-56.524 52.165,-98.623 v 0 C 934.567,967.608 1419.679,847.082 1785.962,847.115 v 0 c 71.61,1.497 82.764,5.344 97.64,10.673 v 0 c 9.595,8.064 19.431,16.678 27.792,24.277 v 0 c 11.994,11.276 25.327,25.032 36.14,35.75 v 0 c 0.224,0.236 0.447,0.47 0.669,0.704 v 0 C 1856.259,880.925 778.946,950.527 694.904,1328.486 v 0 c 2.726,-20.498 6.203,-41.697 9.705,-60.503"
               style="fill:url(#linearGradient248);stroke:none"
               id="path250" /></g></g></g></g><g
       id="g252"><g
         id="g254"><g
           id="g260"><g
             id="g262"><path
               d="m 927.231,878.856 27.116,-23.711 c 2.7,-2.137 5.27,-4.165 7.732,-6.099 v 0 c 14.169,-11.025 30.985,-23.368 45.751,-33.757 v 0 c 13.188,-8.823 27.674,-17.704 50.335,-31.597 v 0 l 9.236,-5.158 c 135.292,-71.808 312.797,-92.028 399.133,-88.101 v 0 c 0.048,0.003 0.097,0.007 0.145,0.01 v 0 l 10.518,0.789 c 1.179,0.098 2.246,0.186 3.233,0.268 v 0 c 4.123,0.36 8.426,0.773 12.947,1.252 v 0 c 4.476,0.505 10.6,1.248 21.279,2.544 v 0 c 0.645,0.085 1.284,0.171 1.923,0.258 v 0 c 7.681,1.045 19.525,2.827 34.085,5.567 v 0 c 17.865,3.425 33.723,7.256 50.02,11.23 v 0 c 0.522,0.136 1.046,0.273 1.57,0.411 v 0 c -131.462,-25.049 -505.353,28.862 -677.581,168.491 v 0 c 0.854,-0.803 1.706,-1.602 2.558,-2.397"
               style="fill:url(#linearGradient268);stroke:none"
               id="path270" /></g></g></g></g><g
       id="g272"><g
         id="g274"><g
           id="g280"><g
             id="g282"><path
               d="m 1151.731,739.003 c 12.505,-4.788 29.384,-10.627 42.031,-15.028 v 0 c 59.549,-18.385 100.898,-25.618 148.032,-31.228 v 0 c 1.418,-0.152 2.8,-0.296 4.136,-0.432 v 0 l 1.362,-0.136 c 1.017,-0.098 1.943,-0.187 2.805,-0.27 v 0 c 3.921,-0.368 7.695,-0.682 11.209,-0.95 v 0 c 4.013,-0.284 9.404,-0.621 18.967,-1.219 v 0 c 1.741,-0.089 3.195,-0.164 4.503,-0.228 v 0 c 2.366,-0.11 4.789,-0.207 7.252,-0.292 v 0 c 3.917,-0.117 9.102,-0.215 19.478,-0.409 v 0 c 4.424,-0.037 8.832,-0.037 13.135,0 v 0 c 3.881,0.062 9.155,0.192 18.999,0.437 v 0 c 0.024,10e-4 0.049,0.002 0.074,0.002 v 0 c 2.469,0.099 4.959,0.205 7.484,0.323 v 0 c 5.211,0.264 10.746,0.602 15.293,0.857 v 0 c 0.013,0.001 0.026,0.002 0.039,0.003 v 0 c -106.35,-5.051 -277.58,23.587 -399.129,88.101 v 0 c 32.169,-17.342 37.106,-19.442 84.33,-39.531"
               style="fill:url(#linearGradient288);stroke:none"
               id="path290" /></g></g></g></g></g></svg>
