<svg width="512" height="68" viewBox="0 0 512 68" fill="none" xmlns="http://www.w3.org/2000/svg">
<g clip-path="url(#clip0_10_21)">
<path d="M26.2666 3.46666C22.8 6.4 22.6666 6.93333 22.6666 20.6667V34.6667H30.8H38.9333L38.4 30C37.7333 24.8 38.1333 24.5333 42.4 27.4667C45.2 29.3333 45.3333 30.4 45.3333 48.8V68H52.6666H60L59.7333 45.0667L59.3333 22L50 14.9333C44.9333 11.2 38.2666 6.26666 35.3333 4.13333L30 0.266663L26.2666 3.46666ZM43.0666 15.3333L54.6666 24V44C54.6666 63.0667 54.5333 64 52 64C49.4666 64 49.3333 63.0667 49.3333 45.4667V26.9333L41.7333 21.4667L34 16L33.6 23.3333C33.2 30.1333 32.9333 30.6667 30 30.6667C26.6666 30.6667 26.6666 30.4 26.6666 19.4667C26.6666 8.93333 27.2 7.33333 30.6666 6.8C31.0666 6.66666 36.5333 10.5333 43.0666 15.3333Z" fill="white"/>
<path d="M7.73331 17.0667L1.33331 21.8667V44.9333V68H20H38.8L38.4 54.9333L38 42L30.4 41.6L22.6666 41.2V47.3333C22.6666 52.8 22.4 53.3333 19.3333 53.3333H16V32.6667C16 21.3333 15.6 12 15.0666 12.1333C14.4 12.1333 11.2 14.4 7.73331 17.0667ZM18.6666 57.3333H26.6666V52C26.6666 47.2 27.0666 46.6667 30 46.6667C33.2 46.6667 33.3333 46.9333 33.3333 55.3333V64.1333L19.7333 63.7333L5.99998 63.3333L5.59998 44C5.33331 26.8 5.46665 24.5333 7.59998 22.9333C9.86665 21.3333 9.99998 22.2667 10.4 39.3333L10.8 57.3333H18.6666Z" fill="white"/>
<path d="M96 41.3333C96 55.0667 96.1333 56 98.6667 56C100.933 56 101.333 55.0667 101.333 50V44H107.333H113.333V50C113.333 55.4667 113.6 56 116.667 56H120V41.2C120 26.6667 120 26.5333 117.067 26.9333C114.533 27.2 113.867 28.2667 113.6 32.9333L113.2 38.6667H107.2H101.333V32.6667C101.333 27.6 100.933 26.6667 98.6667 26.6667C96.1333 26.6667 96 27.6 96 41.3333Z" fill="white"/>
<path d="M139.333 36.2667C137.333 41.6 134.8 48 133.867 50.5334C131.467 56.2667 131.467 56 135.2 56C137.467 56 138.667 55.0667 139.2 52.6667C140 49.7334 140.8 49.3334 145.867 49.3334C151.067 49.3334 151.867 49.7334 152.267 52.2667C152.533 54.2667 153.733 55.4667 155.733 55.7334C157.333 56 158.667 55.7334 158.667 55.0667C158.667 54.4 156.667 47.8667 154.267 40.6667C150.267 28.8 149.467 27.3334 146.4 26.9334C143.2 26.5334 142.667 27.3334 139.333 36.2667ZM148.533 40.9334C149.333 43.6 149.067 44 146.133 44C142.267 44 142 43.0667 144.267 38C145.867 34.4 146.8 34.9334 148.533 40.9334Z" fill="white"/>
<path d="M167.467 30.2667C173.467 54.1333 173.867 55.3333 177.467 55.7333C180.8 56.1333 181.2 55.6 182.667 49.0667C185.067 39.0667 186.133 37.4667 187.2 42.1333C190.4 55.4667 190.667 56 194 56C196.8 56 197.6 54.9333 199.467 48.4C200.667 44.1333 202.4 37.7333 203.467 34.1333C205.867 25.8667 205.867 26.4 202.4 26.9333C199.867 27.2 198.933 28.9333 196.8 37.2C195.333 42.6667 194 46.5333 193.733 45.7333C193.467 44.9333 192.133 40.4 190.933 35.7333C189.067 29.0667 188.133 27.3333 186 27.3333C183.867 27.3333 182.933 29.0667 180.8 37.2C179.333 42.6667 178 46.5333 177.733 45.7333C177.467 44.9333 176.133 40.4 174.933 35.7333C173.067 28.8 172.133 27.2 169.6 26.9333C166.933 26.5333 166.667 26.8 167.467 30.2667Z" fill="white"/>
<path d="M218.267 27.6C217.733 28 217.333 34.6667 217.333 42.2667V56H220.667H224V41.3333C224 28 223.733 26.6667 221.6 26.6667C220.267 26.6667 218.667 27.0667 218.267 27.6Z" fill="white"/>
<path d="M238.667 41.3333C238.667 55.0667 238.8 56 241.333 56C243.867 56 244 55.0667 244 41.3333C244 27.6 243.867 26.6667 241.333 26.6667C238.8 26.6667 238.667 27.6 238.667 41.3333Z" fill="white"/>
<path d="M284.933 32.2667C283.867 35.4667 281.467 42 279.6 47.0667L276.133 56H279.2C281.467 56 282.667 55.0667 283.2 52.6667C284 49.7333 284.8 49.3333 289.867 49.3333C294.933 49.3333 295.867 49.7333 296.533 52.6667C297.2 55.0667 298.267 56 300.533 56H303.733L298.667 41.6C294.267 28.9333 293.2 27.3333 290.267 26.9333C287.467 26.5333 286.667 27.3333 284.933 32.2667ZM292.533 40.9333C293.333 43.6 293.067 44 290.133 44C286.133 44 286.267 44.2667 288.133 38.6667C289.733 34.1333 290.667 34.6667 292.533 40.9333Z" fill="white"/>
<path d="M316 41.3333C316 54.9333 316.133 56 318.667 56C320.933 56 321.2 54.9333 321.6 47.2L322 38.4L328.267 47.2C332.533 53.0667 335.6 56 337.333 56C339.867 56 340 55.0667 340 41.3333C340 27.6 339.867 26.6667 337.333 26.6667C335.067 26.6667 334.8 27.7333 334.4 36.1333L334 45.7333L327.333 36.2667C323.467 30.6667 319.733 26.6667 318.4 26.6667C316.267 26.6667 316 28.2667 316 41.3333Z" fill="white"/>
<path d="M361.6 30.2667C360.933 32.2667 358.4 38.9333 356.133 44.9333L352.133 56H355.2C357.467 56 358.667 55.0667 359.2 52.6667C360 49.7333 360.8 49.3333 365.867 49.3333C370.933 49.3333 371.867 49.7333 372.533 52.6667C373.2 55.0667 374.267 56 376.4 56H379.6L374.667 41.6C370.267 28.9333 369.333 27.3333 366.4 26.9333C363.733 26.6667 362.667 27.3333 361.6 30.2667ZM368.533 40.9333C369.333 43.6 369.067 44 366.133 44C362.133 44 362.267 44.2667 364.133 38.6667C365.733 34.1333 366.667 34.6667 368.533 40.9333Z" fill="white"/>
<path d="M392 41.3333V56H402C411.067 56 412 55.7333 412 53.3333C412 50.9333 411.067 50.6667 404.667 50.6667H397.333V38.6667C397.333 27.6 397.2 26.6667 394.667 26.6667C392.133 26.6667 392 27.6 392 41.3333Z" fill="white"/>
<path d="M418.667 27.4667C418.667 27.8667 420.8 32 423.333 36.5333C426.533 42.4 428 46.6667 428 50.4C428 55.0667 428.4 56 430.667 56C432.933 56 433.333 55.0667 433.333 50.6667C433.333 47.2 434.933 42.6667 438 36.9333C443.467 27.0667 443.467 26.6667 440 26.6667C438.267 26.6667 436.4 28.6667 434.267 32.9333L431.067 39.0667L427.333 32.9333C425.067 28.9333 422.8 26.6667 421.2 26.6667C419.867 26.6667 418.667 27.0667 418.667 27.4667Z" fill="white"/>
<path d="M456.267 29.3333C454.667 30.9333 453.333 33.4666 453.333 35.2C453.333 38.1333 456.933 42.6666 459.467 42.6666C460.133 42.6666 462.933 43.3333 465.733 44.1333C469.2 45.0666 470.667 46.2666 470.667 47.8666C470.667 52.5333 462.4 53.6 459.733 49.3333C457.6 46 453.333 45.8666 453.333 49.0666C453.333 58.5333 474.133 59.3333 476.533 50.1333C477.867 44.8 475.333 41.6 468 39.4666C459.467 36.9333 458.667 36.4 459.6 34C460.533 31.3333 469.2 31.3333 470.133 34C471.2 36.5333 476 36.6666 476 34C476 30.2666 470.4 26.6666 464.667 26.6666C460.933 26.6666 458.267 27.6 456.267 29.3333Z" fill="white"/>
<path d="M490.667 41.3333V56H501.333C511.067 56 512 55.7333 512 53.3333C512 50.9333 511.067 50.6667 504 50.6667C496.4 50.6667 496 50.5333 496 47.3333C496 44.2667 496.533 44 502 44C507.067 44 508 43.6 508 41.3333C508 39.0667 507.067 38.6667 502 38.6667C496.533 38.6667 496 38.4 496 35.3333C496 32.1333 496.4 32 504.133 32C511.067 32 512.133 31.7333 511.733 29.6C511.333 27.7333 509.6 27.3333 500.933 26.9333L490.667 26.5333V41.3333Z" fill="white"/>
</g>
<defs>
<clipPath id="clip0_10_21">
<rect width="512" height="68" fill="white"/>
</clipPath>
</defs>
</svg>
