<svg width="32" height="32" viewBox="0 0 32 32" fill="none" xmlns="http://www.w3.org/2000/svg">
<path d="M10.8098 18.78H12.2498C12.2898 19.34 12.4565 19.84 12.7498 20.28C13.0432 20.72 13.4432 21.0667 13.9498 21.32C14.4698 21.5733 15.0765 21.7 15.7698 21.7C16.3698 21.7 16.8698 21.6133 17.2698 21.44C17.6832 21.2533 17.9898 21 18.1898 20.68C18.4032 20.36 18.5098 19.9867 18.5098 19.56C18.5098 19.12 18.4032 18.7667 18.1898 18.5C17.9765 18.2333 17.6698 18.0067 17.2698 17.82C16.8698 17.6333 16.3965 17.4533 15.8498 17.28C15.3298 17.12 14.8032 16.9333 14.2698 16.72C13.7365 16.5067 13.2365 16.2467 12.7698 15.94C12.3165 15.6333 11.9498 15.2667 11.6698 14.84C11.3898 14.4 11.2498 13.8733 11.2498 13.26C11.2498 12.66 11.4098 12.1 11.7298 11.58C12.0632 11.0467 12.5432 10.62 13.1698 10.3C13.8098 9.96667 14.5765 9.8 15.4698 9.8C16.8698 9.8 17.9165 10.18 18.6098 10.94C19.3032 11.7 19.6365 12.7067 19.6098 13.96H18.1698C18.1432 13.0133 17.8765 12.3333 17.3698 11.92C16.8632 11.5067 16.2032 11.3 15.3898 11.3C14.7098 11.3 14.1165 11.46 13.6098 11.78C13.1032 12.0867 12.8498 12.5733 12.8498 13.24C12.8498 13.5333 12.9032 13.7933 13.0098 14.02C13.1298 14.2333 13.3165 14.4333 13.5698 14.62C13.8365 14.8067 14.1898 14.9933 14.6298 15.18C15.0832 15.3533 15.6365 15.5467 16.2898 15.76C16.7165 15.8933 17.1498 16.0533 17.5898 16.24C18.0432 16.4267 18.4565 16.66 18.8298 16.94C19.2165 17.22 19.5232 17.58 19.7498 18.02C19.9898 18.4467 20.1098 18.9867 20.1098 19.64C20.1098 20.2667 19.9565 20.8533 19.6498 21.4C19.3565 21.9333 18.8898 22.3667 18.2498 22.7C17.6232 23.0333 16.8098 23.2 15.8098 23.2C14.9565 23.2 14.2232 23.0867 13.6098 22.86C13.0098 22.62 12.5165 22.3133 12.1298 21.94C11.7432 21.5667 11.4432 21.18 11.2298 20.78C11.0298 20.3667 10.8965 19.98 10.8298 19.62C10.7632 19.26 10.7565 18.98 10.8098 18.78Z" fill="url(#paint0_linear_80_904)"/>
<rect x="0.5" y="0.5" width="31" height="31" stroke="url(#paint1_linear_80_904)"/>
<defs>
<linearGradient id="paint0_linear_80_904" x1="35.1504" y1="-1.88574" x2="-7.84961" y2="48.6143" gradientUnits="userSpaceOnUse">
<stop stop-color="white"/>
<stop offset="0.612575" stop-color="white" stop-opacity="0"/>
</linearGradient>
<linearGradient id="paint1_linear_80_904" x1="16" y1="-27" x2="16" y2="88.5" gradientUnits="userSpaceOnUse">
<stop stop-color="white" stop-opacity="0"/>
<stop offset="0.394605" stop-color="white" stop-opacity="0.326695"/>
<stop offset="1" stop-color="white"/>
</linearGradient>
</defs>
</svg>
